<?xml version="1.0" standalone="no"?>
<!DOCTYPE svg PUBLIC "-//W3C//DTD SVG 20010904//EN"
 "http://www.w3.org/TR/2001/REC-SVG-20010904/DTD/svg10.dtd">
<svg version="1.0" xmlns="http://www.w3.org/2000/svg"
 width="512.000000pt" height="512.000000pt" viewBox="0 0 512.000000 512.000000"
 preserveAspectRatio="xMidYMid meet">
<metadata>
Created by potrace 1.11, written by Peter Selinger 2001-2013
</metadata>
<g transform="translate(0.000000,512.000000) scale(0.100000,-0.100000)"
fill="#000000" stroke="none">
<path d="M2379 5116 c-2 -2 -40 -6 -83 -10 -44 -4 -82 -9 -85 -11 -4 -2 -34
-7 -66 -10 -186 -22 -488 -118 -704 -223 -351 -173 -614 -384 -898 -725 -83
-99 -224 -328 -300 -488 -92 -193 -183 -484 -207 -660 -3 -19 -7 -50 -10 -69
-22 -132 -29 -545 -11 -650 3 -19 13 -78 21 -130 64 -394 227 -781 467 -1102
300 -402 700 -703 1162 -876 180 -67 388 -119 555 -138 30 -3 78 -10 105 -14
50 -8 467 -5 515 4 14 2 45 7 70 10 218 32 501 110 660 182 579 265 1007 669
1278 1209 113 224 206 509 237 720 3 23 7 51 10 63 19 103 27 465 13 612 -80
797 -521 1502 -1208 1930 -78 49 -330 180 -345 180 -4 0 -21 6 -38 14 -134 61
-439 142 -602 161 -27 3 -61 8 -75 11 -28 6 -456 15 -461 10z m401 -220 c78
-8 132 -15 156 -20 12 -2 37 -7 55 -10 104 -16 321 -80 444 -129 427 -172 809
-482 1072 -872 186 -275 325 -628 369 -935 2 -19 6 -44 9 -55 9 -44 19 -207
19 -315 0 -106 -12 -298 -19 -310 -1 -3 -6 -29 -9 -58 -3 -30 -11 -75 -17
-100 -6 -26 -13 -58 -15 -72 -8 -43 -55 -191 -91 -290 -224 -605 -719 -1107
-1331 -1351 -145 -58 -369 -120 -483 -134 -30 -3 -61 -8 -69 -10 -32 -8 -171
-18 -287 -19 -288 -5 -543 39 -830 143 -478 172 -908 521 -1183 961 -113 180
-242 479 -281 649 -6 25 -13 55 -15 66 -14 60 -33 167 -39 215 -4 30 -9 71
-11 90 -9 66 -10 316 -3 395 16 163 20 194 45 310 8 39 17 81 20 95 12 63 107
326 153 420 55 116 155 285 220 374 138 186 339 391 497 504 91 66 174 122
180 122 3 0 18 9 33 19 94 67 437 213 577 246 10 2 57 13 104 25 47 11 105 22
130 25 25 4 56 8 70 11 14 2 63 6 110 10 47 4 86 8 88 9 5 4 277 -3 332 -9z"/>
<path d="M1822 4050 c-56 -4 -67 -9 -88 -35 -17 -21 -24 -43 -25 -75 0 -25 -1
-470 -2 -990 l-2 -945 -210 -5 c-224 -5 -242 -9 -264 -57 -6 -13 -11 -33 -11
-44 0 -30 30 -76 57 -88 15 -7 102 -11 227 -11 l203 0 1 -329 c0 -226 4 -335
11 -350 29 -53 9 -51 682 -52 671 0 712 2 857 51 280 96 484 313 558 595 25
97 25 312 0 410 -22 84 -71 194 -120 268 -73 110 -223 236 -343 288 -26 12
-49 23 -51 24 -1 1 28 33 66 71 159 161 235 345 228 554 -12 339 -230 632
-525 706 -56 14 -146 16 -625 18 -309 0 -590 -1 -624 -4z m1280 -253 c160 -79
272 -262 282 -463 13 -244 -181 -499 -417 -548 -46 -10 -190 -13 -554 -13
l-493 0 0 534 0 534 553 -3 553 -3 76 -38z m-32 -1249 c276 -50 472 -222 537
-471 15 -60 21 -215 10 -267 -40 -193 -132 -327 -289 -422 -59 -37 -143 -73
-190 -82 -13 -3 -45 -9 -73 -15 -29 -5 -280 -10 -597 -11 l-548 -1 0 261 0
260 243 0 c216 1 244 3 263 18 43 36 54 79 32 127 -23 51 -47 55 -303 55
l-235 0 0 280 0 281 548 -1 c316 -1 570 -6 602 -12z"/>
</g>
</svg>
